<svg width="256" height="256" viewBox="0 0 100 100" fill="none" xmlns="http://www.w3.org/2000/svg">
  <rect width="100" height="100" rx="22" fill="black"/>
  <g transform="translate(50 50)" stroke="#D4AF37" stroke-width="0.6" fill="none" opacity="0.75">
    <ellipse cx="0" cy="0" rx="45" ry="22" transform="rotate(0)"/>
    <ellipse cx="0" cy="0" rx="45" ry="22" transform="rotate(10)"/>
    <ellipse cx="0" cy="0" rx="45" ry="22" transform="rotate(20)"/>
    <ellipse cx="0" cy="0" rx="45" ry="22" transform="rotate(30)"/>
    <ellipse cx="0" cy="0" rx="45" ry="22" transform="rotate(40)"/>
    <ellipse cx="0" cy="0" rx="45" ry="22" transform="rotate(50)"/>
    <ellipse cx="0" cy="0" rx="45" ry="22" transform="rotate(60)"/>
    <ellipse cx="0" cy="0" rx="45" ry="22" transform="rotate(70)"/>
    <ellipse cx="0" cy="0" rx="45" ry="22" transform="rotate(80)"/>
    <ellipse cx="0" cy="0" rx="45" ry="22" transform="rotate(90)"/>
    <ellipse cx="0" cy="0" rx="45" ry="22" transform="rotate(100)"/>
    <ellipse cx="0" cy="0" rx="45" ry="22" transform="rotate(110)"/>
    <ellipse cx="0" cy="0" rx="45" ry="22" transform="rotate(120)"/>
    <ellipse cx="0" cy="0" rx="45" ry="22" transform="rotate(130)"/>
    <ellipse cx="0" cy="0" rx="45" ry="22" transform="rotate(140)"/>
    <ellipse cx="0" cy="0" rx="45" ry="22" transform="rotate(150)"/>
    <ellipse cx="0" cy="0" rx="45" ry="22" transform="rotate(160)"/>
    <ellipse cx="0" cy="0" rx="45" ry="22" transform="rotate(170)"/>
  </g>
  <path d="M54,34v-5c0-5-4-9-9-9s-9,4-9,9v26h-8v6h8v15c0,6.6,5.4,12,12,12s12-5.4,12-12c0-6-5-11-11-11.9V40h11v-6H54z" fill="#D4AF37"/>
</svg>